<?xml version="1.0" encoding="UTF-8" standalone="no"?>
<!DOCTYPE svg PUBLIC "-//W3C//DTD SVG 1.1//EN" "http://www.w3.org/Graphics/SVG/1.1/DTD/svg11.dtd">
<svg version="1.1" xmlns="http://www.w3.org/2000/svg" xmlns:xlink="http://www.w3.org/1999/xlink" preserveAspectRatio="xMidYMid meet" viewBox="7.326622988101462 41.18313246194771 1009.3467540237968 167.77626540008214"><defs><path d="M100.68 52.08L102.37 53.03L104.02 54L105.62 54.98L107.17 56L108.68 57.03L110.15 58.09L111.57 59.17L112.94 60.28L114.27 61.41L115.56 62.56L116.8 63.73L117.99 64.93L119.14 66.15L120.25 67.39L121.31 68.66L122.32 69.95L123.29 71.26L124.21 72.6L125.09 73.96L125.93 75.34L126.72 76.74L127.46 78.17L128.16 79.62L128.81 81.09L129.42 82.59L129.98 84.11L130.5 85.65L130.98 87.22L131.4 88.81L131.79 90.42L132.13 92.06L132.42 93.72L132.67 95.4L132.87 97.1L133.03 98.83L133.14 100.58L133.21 102.35L133.23 104.15L133.21 105.95L133.14 107.72L133.03 109.48L132.87 111.2L132.67 112.91L132.42 114.6L132.13 116.26L131.79 117.9L131.4 119.51L130.98 121.11L130.5 122.68L129.98 124.23L129.42 125.76L128.81 127.26L128.16 128.74L127.46 130.2L126.72 131.64L125.93 133.05L125.09 134.44L124.21 135.81L123.29 137.16L122.32 138.48L121.31 139.78L120.25 141.06L119.14 142.32L117.99 143.55L116.8 144.76L115.56 145.95L114.27 147.12L112.94 148.26L111.57 149.38L110.15 150.48L108.68 151.56L107.17 152.61L105.62 153.64L104.02 154.65L102.37 155.64L100.68 156.6L98.95 157.54L97.16 158.46L43.27 158.46L43.27 206.96L9.28 206.96L8.33 50.27L97.16 50.27L98.95 51.16L100.68 52.08ZM43.69 128.61L83.9 128.61L84.65 128.06L85.38 127.5L86.09 126.94L86.78 126.37L87.45 125.81L88.1 125.24L88.73 124.66L89.34 124.09L89.92 123.51L90.49 122.93L91.03 122.35L91.56 121.76L92.06 121.17L92.55 120.58L93.01 119.99L93.45 119.39L93.88 118.79L94.28 118.19L94.66 117.58L95.02 116.97L95.36 116.36L95.68 115.75L95.98 115.13L96.25 114.52L96.51 113.89L96.75 113.27L96.96 112.64L97.16 112.01L97.33 111.38L97.49 110.75L97.62 110.11L97.74 109.47L97.83 108.82L97.9 108.18L97.95 107.53L97.98 106.88L97.99 106.22L97.98 105.57L97.95 104.91L97.9 104.25L97.83 103.58L97.74 102.91L97.62 102.24L97.49 101.57L97.33 100.89L97.16 100.21L96.96 99.53L96.75 98.85L96.51 98.16L96.25 97.47L95.98 96.78L95.68 96.09L95.36 95.39L95.02 94.69L94.66 93.98L94.28 93.28L93.88 92.57L93.45 91.86L93.01 91.14L92.55 90.43L92.06 89.71L91.56 88.99L91.03 88.26L90.49 87.53L89.92 86.8L89.34 86.07L88.73 85.33L88.1 84.6L87.45 83.85L86.78 83.11L86.09 82.36L85.38 81.61L84.65 80.86L83.9 80.11L43.69 80.11L43.69 128.61Z" id="d94DaRnJdb"></path><path d="M240.25 52.08L241.95 53.03L243.59 54L245.19 54.98L246.75 56L248.26 57.03L249.72 58.09L251.14 59.17L252.52 60.28L253.85 61.41L255.13 62.56L256.37 63.73L257.57 64.93L258.72 66.15L259.82 67.39L260.88 68.66L261.89 69.95L262.86 71.26L263.79 72.6L264.67 73.96L265.5 75.34L266.29 76.74L267.03 78.17L267.73 79.62L268.39 81.09L268.99 82.59L269.56 84.11L270.08 85.65L270.55 87.22L270.98 88.81L271.36 90.42L271.7 92.06L271.99 93.72L272.24 95.4L272.44 97.1L272.6 98.83L272.71 100.58L272.78 102.35L272.8 104.15L272.78 105.95L272.71 107.72L272.6 109.48L272.44 111.2L272.24 112.91L271.99 114.6L271.7 116.26L271.36 117.9L270.98 119.51L270.55 121.11L270.08 122.68L269.56 124.23L268.99 125.76L268.39 127.26L267.73 128.74L267.03 130.2L266.29 131.64L265.5 133.05L264.67 134.44L263.79 135.81L262.86 137.16L261.89 138.48L260.88 139.78L259.82 141.06L258.72 142.32L257.57 143.55L256.37 144.76L255.13 145.95L253.85 147.12L252.52 148.26L251.14 149.38L249.72 150.48L248.26 151.56L246.75 152.61L245.19 153.64L243.59 154.65L242.15 155.51L279.31 206.96L241.59 206.96L208.48 158.46L182.85 158.46L182.85 206.96L148.85 206.96L147.9 50.27L236.74 50.27L238.52 51.16L240.25 52.08ZM183.26 128.61L223.47 128.61L224.22 128.06L224.96 127.5L225.67 126.94L226.36 126.37L227.02 125.81L227.67 125.24L228.3 124.66L228.91 124.09L229.5 123.51L230.06 122.93L230.61 122.35L231.13 121.76L231.64 121.17L232.12 120.58L232.58 119.99L233.03 119.39L233.45 118.79L233.85 118.19L234.23 117.58L234.59 116.97L234.93 116.36L235.25 115.75L235.55 115.13L235.83 114.52L236.09 113.89L236.32 113.27L236.54 112.64L236.73 112.01L236.91 111.38L237.06 110.75L237.2 110.11L237.31 109.47L237.4 108.82L237.47 108.18L237.53 107.53L237.56 106.88L237.57 106.22L237.56 105.57L237.53 104.91L237.47 104.25L237.4 103.58L237.31 102.91L237.2 102.24L237.06 101.57L236.91 100.89L236.73 100.21L236.54 99.53L236.32 98.85L236.09 98.16L235.83 97.47L235.55 96.78L235.25 96.09L234.93 95.39L234.59 94.69L234.23 93.98L233.85 93.28L233.45 92.57L233.03 91.86L232.58 91.14L232.12 90.43L231.64 89.71L231.13 88.99L230.61 88.26L230.06 87.53L229.5 86.8L228.91 86.07L228.3 85.33L227.67 84.6L227.02 83.85L226.36 83.11L225.67 82.36L224.96 81.61L224.22 80.86L223.47 80.11L183.26 80.11L183.26 128.61Z" id="dEUA1A91Y"></path><path d="M403.48 55.29L406.52 56.43L409.51 57.67L412.44 59.02L415.3 60.47L418.1 62.01L420.82 63.66L423.47 65.39L426.04 67.22L428.53 69.14L430.95 71.14L433.28 73.23L435.52 75.39L437.67 77.64L439.73 79.96L441.69 82.36L443.55 84.82L445.32 87.36L446.98 89.96L448.54 92.62L449.98 95.35L451.32 98.13L452.54 100.97L453.64 103.86L454.63 106.8L455.49 109.8L456.22 112.83L456.83 115.91L457.31 119.03L457.66 122.19L457.86 125.39L457.93 128.61L457.86 131.84L457.66 135.03L457.31 138.19L456.83 141.31L456.22 144.39L455.49 147.43L454.63 150.42L453.64 153.37L452.54 156.26L451.32 159.1L449.98 161.88L448.54 164.61L446.98 167.27L445.32 169.87L443.55 172.4L441.69 174.87L439.73 177.27L437.67 179.59L435.52 181.83L433.28 184L430.95 186.09L428.53 188.09L426.04 190.01L423.47 191.83L420.82 193.57L418.1 195.21L415.3 196.76L412.44 198.21L409.51 199.56L406.52 200.8L403.48 201.93L400.37 202.96L397.21 203.88L393.99 204.68L390.73 205.37L387.42 205.93L384.07 206.38L380.68 206.7L377.25 206.89L373.78 206.96L370.31 206.89L366.88 206.7L363.49 206.38L360.14 205.93L356.83 205.37L353.57 204.68L350.36 203.88L347.19 202.96L344.09 201.93L341.04 200.8L338.05 199.56L335.12 198.21L332.26 196.76L329.47 195.21L326.74 193.57L324.1 191.83L321.52 190.01L319.03 188.09L316.62 186.09L314.29 184L312.05 181.83L309.9 179.59L307.84 177.27L305.87 174.87L304.01 172.4L302.24 169.87L300.58 167.27L299.03 164.61L297.58 161.88L296.25 159.1L295.03 156.26L293.92 153.37L292.94 150.42L292.08 147.43L291.34 144.39L290.73 141.31L290.25 138.19L289.91 135.03L289.7 131.84L289.63 128.61L289.7 125.39L289.91 122.19L290.25 119.03L290.73 115.91L291.34 112.83L292.08 109.8L292.94 106.8L293.92 103.86L295.03 100.97L296.25 98.13L297.58 95.35L299.03 92.62L300.58 89.96L302.24 87.36L304.01 84.82L305.87 82.36L307.84 79.96L309.9 77.64L312.05 75.39L314.29 73.23L316.62 71.14L319.03 69.14L321.52 67.22L324.1 65.39L326.74 63.66L329.47 62.01L332.26 60.47L335.12 59.02L338.05 57.67L341.04 56.43L344.09 55.29L347.19 54.26L350.36 53.35L352.47 52.82L352.47 79.66L351.66 79.93L349.64 80.68L347.65 81.51L345.71 82.4L343.81 83.36L341.95 84.39L340.15 85.48L338.39 86.63L336.68 87.85L335.02 89.12L333.42 90.45L331.88 91.84L330.39 93.27L328.96 94.77L327.59 96.31L326.29 97.9L325.05 99.54L323.88 101.22L322.78 102.95L321.74 104.71L320.78 106.52L319.9 108.37L319.09 110.26L318.35 112.18L317.7 114.13L317.13 116.12L316.64 118.13L316.23 120.18L315.92 122.25L315.69 124.35L315.55 126.47L315.5 128.61L315.55 130.76L315.69 132.88L315.92 134.97L316.23 137.05L316.64 139.09L317.13 141.11L317.7 143.09L318.35 145.05L319.09 146.97L319.9 148.85L320.78 150.7L321.74 152.51L322.78 154.28L323.88 156.01L325.05 157.69L326.29 159.33L327.59 160.92L328.96 162.46L330.39 163.95L331.88 165.39L333.42 166.78L335.02 168.11L336.68 169.38L338.39 170.59L340.15 171.75L341.95 172.84L343.81 173.86L345.71 174.83L347.65 175.72L349.64 176.54L351.66 177.3L353.73 177.98L355.82 178.59L357.96 179.12L360.12 179.58L362.32 179.95L364.55 180.25L366.8 180.46L369.08 180.59L371.38 180.64L373.68 180.59L375.96 180.46L378.21 180.25L380.44 179.95L382.64 179.58L384.8 179.12L386.93 178.59L389.03 177.98L391.1 177.3L393.12 176.54L395.11 175.72L397.05 174.83L398.95 173.86L400.8 172.84L402.61 171.75L404.37 170.59L406.08 169.38L407.74 168.11L409.34 166.78L410.88 165.39L412.37 163.95L413.8 162.46L415.17 160.92L416.47 159.33L417.71 157.69L418.88 156.01L419.98 154.28L421.02 152.51L421.98 150.7L422.86 148.85L423.67 146.97L424.41 145.05L425.06 143.09L425.63 141.11L426.12 139.09L426.53 137.05L426.84 134.97L427.07 132.88L427.21 130.76L427.26 128.61L427.21 126.47L427.07 124.35L426.84 122.25L426.53 120.18L426.12 118.13L425.63 116.12L425.06 114.13L424.41 112.18L423.67 110.26L422.86 108.37L421.98 106.52L421.02 104.71L419.98 102.95L418.88 101.22L417.71 99.54L416.47 97.9L415.17 96.31L413.8 94.77L412.37 93.27L410.88 91.84L409.34 90.45L407.74 89.12L406.08 87.85L404.37 86.63L402.61 85.48L400.8 84.39L398.95 83.36L397.05 82.4L395.11 81.51L395.1 81.5L395.1 52.82L397.21 53.35L400.37 54.26L400.37 54.26L403.48 55.29Z" id="b71JMIGyj"></path><path d="M356.16 44.18L391.4 44.18L391.4 141.88L356.16 141.88L356.16 44.18Z" id="bdonZv48Y"></path><path d="M613.88 206.96L584.43 206.96L528.17 139.13L495.89 172.47L495.89 206.96L473.23 206.96L473.23 50.27L495.89 50.27L495.89 139.88L582.66 50.27L614.2 50.27L544.03 122.75L613.88 206.96Z" id="e3Am3GRalP"></path><path d="M746.62 50.27L746.62 72.93L652.08 72.93L652.08 117.28L746.62 117.28L746.62 139.95L652.08 139.95L652.08 184.29L746.62 184.29L746.62 206.96L629.42 206.96L629.42 50.27L746.62 50.27Z" id="b2uffLVROZ"></path><path d="M877.73 50.27L877.73 72.93L784.49 72.93L784.49 117.28L877.73 117.28L877.73 139.95L784.49 139.95L784.49 184.29L877.73 184.29L877.73 206.96L761.83 206.96L761.83 50.27L877.73 50.27Z" id="c1r3oygl0a"></path><path d="M976.04 51.8L978.12 52.61L980.15 53.45L982.12 54.32L984.03 55.21L985.89 56.13L987.69 57.08L989.44 58.06L991.12 59.06L992.76 60.09L994.33 61.15L995.85 62.24L997.32 63.36L998.73 64.5L1000.08 65.68L1001.37 66.88L1002.61 68.1L1003.8 69.36L1004.92 70.64L1005.99 71.96L1007.01 73.3L1007.97 74.66L1008.87 76.06L1009.72 77.48L1010.51 78.93L1011.24 80.41L1011.92 81.92L1012.54 83.45L1013.11 85.02L1013.62 86.61L1014.07 88.23L1014.47 89.87L1014.81 91.55L1015.09 93.25L1015.32 94.98L1015.49 96.74L1015.61 98.52L1015.67 100.34L1015.67 102.18L1015.62 104.02L1015.52 105.84L1015.36 107.63L1015.15 109.39L1014.88 111.13L1014.56 112.84L1014.19 114.53L1013.77 116.2L1013.29 117.84L1012.75 119.45L1012.17 121.04L1011.52 122.61L1010.83 124.15L1010.08 125.66L1009.28 127.15L1008.43 128.61L1007.52 130.05L1006.56 131.47L1005.54 132.85L1004.47 134.22L1003.35 135.56L1002.17 136.87L1000.94 138.16L999.66 139.42L998.32 140.66L996.93 141.87L995.48 143.06L993.99 144.23L992.43 145.36L990.83 146.48L989.17 147.57L987.46 148.63L985.69 149.67L983.87 150.68L982 151.67L980.07 152.63L978.09 153.57L976.05 154.48L973.97 155.37L971.83 156.23L971.81 156.23L971.81 156.24L971.8 156.24L971.78 156.24L971.77 156.25L971.77 156.25L971.75 156.25L971.75 156.25L971.74 156.26L971.73 156.26L971.73 156.26L971.71 156.26L971.71 156.26L971.69 156.27L971.69 156.27L971.68 156.27L971.67 156.27L971.66 156.27L971.65 156.27L971.64 156.27L971.63 156.27L971.62 156.27L971.61 156.28L971.6 156.28L971.59 156.28L971.58 156.28L915.97 156.28L915.97 206.96L893.31 206.96L893.31 50.27L971.71 50.27L973.9 51.02L976.04 51.8ZM915.97 133.61L954.81 133.61L955.56 133.6L956.31 133.59L957.05 133.58L957.78 133.55L958.51 133.52L959.23 133.49L959.94 133.44L960.65 133.39L961.34 133.33L962.04 133.26L962.72 133.19L963.4 133.11L964.07 133.02L964.74 132.92L965.4 132.82L966.05 132.71L966.7 132.6L967.34 132.47L967.97 132.34L968.59 132.2L969.21 132.06L969.82 131.91L970.43 131.75L971.03 131.58L971.62 131.41L972.21 131.23L972.78 131.04L973.36 130.84L973.92 130.64L974.48 130.43L975.03 130.21L975.58 129.99L976.12 129.76L976.65 129.52L977.17 129.27L977.69 129.02L978.2 128.76L978.71 128.5L979.21 128.22L979.7 127.94L980.42 127.51L981.11 127.07L981.78 126.62L982.42 126.17L983.03 125.7L983.62 125.23L984.19 124.74L984.73 124.25L985.25 123.75L985.75 123.23L986.22 122.71L986.67 122.17L987.1 121.63L987.51 121.07L987.9 120.51L988.26 119.93L988.61 119.34L988.93 118.74L989.24 118.12L989.53 117.5L989.8 116.86L990.05 116.21L990.29 115.54L990.51 114.86L990.71 114.17L990.89 113.47L991.06 112.75L991.22 112.01L991.36 111.27L991.48 110.5L991.6 109.73L991.69 108.93L991.78 108.12L991.85 107.3L991.91 106.46L991.96 105.61L991.99 104.74L992.02 103.85L992.03 102.94L992.04 102.02L992.03 101.1L992.01 100.21L991.97 99.34L991.92 98.49L991.85 97.66L991.76 96.85L991.67 96.07L991.55 95.3L991.42 94.56L991.28 93.83L991.11 93.12L990.94 92.43L990.75 91.76L990.54 91.11L990.32 90.47L990.08 89.85L989.83 89.24L989.56 88.65L989.27 88.07L988.98 87.51L988.66 86.96L988.33 86.42L987.98 85.89L987.62 85.38L987.24 84.88L986.85 84.39L986.44 83.9L986.02 83.43L985.58 82.97L985.12 82.52L984.65 82.07L984.16 81.63L983.66 81.2L983.14 80.77L982.61 80.35L982.06 79.94L981.49 79.53L980.91 79.12L980.31 78.72L979.7 78.32L979.28 78.06L978.85 77.8L978.41 77.55L977.96 77.31L977.5 77.08L977.03 76.85L976.54 76.63L976.05 76.41L975.55 76.2L975.04 76L974.51 75.8L973.98 75.61L973.43 75.43L972.88 75.25L972.32 75.08L971.74 74.91L971.15 74.76L970.56 74.61L969.95 74.46L969.33 74.32L968.71 74.19L968.07 74.07L967.42 73.95L966.76 73.84L966.09 73.73L965.41 73.63L964.72 73.54L964.02 73.46L963.31 73.38L962.59 73.3L961.86 73.24L961.12 73.18L960.37 73.13L959.6 73.08L958.83 73.04L958.05 73.01L957.25 72.98L956.45 72.96L955.64 72.94L954.81 72.94L915.97 72.94L915.97 133.61Z" id="b2S05bF3F"></path></defs><g><g><g><filter id="shadow162796" x="0.33" y="42.27" width="140.9" height="173.69" filterUnits="userSpaceOnUse" primitiveUnits="userSpaceOnUse"><feFlood></feFlood><feComposite in2="SourceAlpha" operator="in"></feComposite><feGaussianBlur stdDeviation="1"></feGaussianBlur><feOffset dx="0" dy="1" result="afterOffset"></feOffset><feFlood flood-color="#000000" flood-opacity="0.5"></feFlood><feComposite in2="afterOffset" operator="in"></feComposite><feMorphology operator="dilate" radius="0"></feMorphology><feComposite in2="SourceAlpha" operator="out"></feComposite></filter><path d="M100.68 52.08L102.37 53.03L104.02 54L105.62 54.98L107.17 56L108.68 57.03L110.15 58.09L111.57 59.17L112.94 60.28L114.27 61.41L115.56 62.56L116.8 63.73L117.99 64.93L119.14 66.15L120.25 67.39L121.31 68.66L122.32 69.95L123.29 71.26L124.21 72.6L125.09 73.96L125.93 75.34L126.72 76.74L127.46 78.17L128.16 79.62L128.81 81.09L129.42 82.59L129.98 84.11L130.5 85.65L130.98 87.22L131.4 88.81L131.79 90.42L132.13 92.06L132.42 93.72L132.67 95.4L132.87 97.1L133.03 98.83L133.14 100.58L133.21 102.35L133.23 104.15L133.21 105.95L133.14 107.72L133.03 109.48L132.87 111.2L132.67 112.91L132.42 114.6L132.13 116.26L131.79 117.9L131.4 119.51L130.98 121.11L130.5 122.68L129.98 124.23L129.42 125.76L128.81 127.26L128.16 128.74L127.46 130.2L126.72 131.64L125.93 133.05L125.09 134.44L124.21 135.81L123.29 137.16L122.32 138.48L121.31 139.78L120.25 141.06L119.14 142.32L117.99 143.55L116.8 144.76L115.56 145.95L114.27 147.12L112.94 148.26L111.57 149.38L110.15 150.48L108.68 151.56L107.17 152.61L105.62 153.64L104.02 154.65L102.37 155.64L100.68 156.6L98.95 157.54L97.16 158.46L43.27 158.46L43.27 206.96L9.28 206.96L8.33 50.27L97.16 50.27L98.95 51.16L100.68 52.08ZM43.69 128.61L83.9 128.61L84.65 128.06L85.38 127.5L86.09 126.94L86.78 126.37L87.45 125.81L88.1 125.24L88.73 124.66L89.34 124.09L89.92 123.51L90.49 122.93L91.03 122.35L91.56 121.76L92.06 121.17L92.55 120.58L93.01 119.99L93.45 119.39L93.88 118.79L94.28 118.19L94.66 117.58L95.02 116.97L95.36 116.36L95.68 115.75L95.98 115.13L96.25 114.52L96.51 113.89L96.75 113.27L96.96 112.64L97.16 112.01L97.33 111.38L97.49 110.75L97.62 110.11L97.74 109.47L97.83 108.82L97.9 108.18L97.95 107.53L97.98 106.88L97.99 106.22L97.98 105.57L97.95 104.91L97.9 104.25L97.83 103.58L97.74 102.91L97.62 102.24L97.49 101.57L97.33 100.89L97.16 100.21L96.96 99.53L96.75 98.85L96.51 98.16L96.25 97.47L95.98 96.78L95.68 96.09L95.36 95.39L95.02 94.69L94.66 93.98L94.28 93.28L93.88 92.57L93.45 91.86L93.01 91.14L92.55 90.43L92.06 89.71L91.56 88.99L91.03 88.26L90.49 87.53L89.92 86.8L89.34 86.07L88.73 85.33L88.1 84.6L87.45 83.85L86.78 83.11L86.09 82.36L85.38 81.61L84.65 80.86L83.9 80.11L43.69 80.11L43.69 128.61Z" id="a2t3KIC7OW" fill="white" fill-opacity="1" filter="url(#shadow162796)"></path></g><use xlink:href="#d94DaRnJdb" opacity="1" fill="#ffffff" fill-opacity="1"></use></g><g><g><filter id="shadow10375563" x="139.9" y="42.27" width="147.41" height="173.69" filterUnits="userSpaceOnUse" primitiveUnits="userSpaceOnUse"><feFlood></feFlood><feComposite in2="SourceAlpha" operator="in"></feComposite><feGaussianBlur stdDeviation="1"></feGaussianBlur><feOffset dx="0" dy="1" result="afterOffset"></feOffset><feFlood flood-color="#000000" flood-opacity="0.5"></feFlood><feComposite in2="afterOffset" operator="in"></feComposite><feMorphology operator="dilate" radius="0"></feMorphology><feComposite in2="SourceAlpha" operator="out"></feComposite></filter><path d="M240.25 52.08L241.95 53.03L243.59 54L245.19 54.98L246.75 56L248.26 57.03L249.72 58.09L251.14 59.17L252.52 60.28L253.85 61.41L255.13 62.56L256.37 63.73L257.57 64.93L258.72 66.15L259.82 67.39L260.88 68.66L261.89 69.95L262.86 71.26L263.79 72.6L264.67 73.96L265.5 75.34L266.29 76.74L267.03 78.17L267.73 79.62L268.39 81.09L268.99 82.59L269.56 84.11L270.08 85.65L270.55 87.22L270.98 88.81L271.36 90.42L271.7 92.06L271.99 93.72L272.24 95.4L272.44 97.1L272.6 98.83L272.71 100.58L272.78 102.35L272.8 104.15L272.78 105.95L272.71 107.72L272.6 109.48L272.44 111.2L272.24 112.91L271.99 114.6L271.7 116.26L271.36 117.9L270.98 119.51L270.55 121.11L270.08 122.68L269.56 124.23L268.99 125.76L268.39 127.26L267.73 128.74L267.03 130.2L266.29 131.64L265.5 133.05L264.67 134.44L263.79 135.81L262.86 137.16L261.89 138.48L260.88 139.78L259.82 141.06L258.72 142.32L257.57 143.55L256.37 144.76L255.13 145.95L253.85 147.12L252.52 148.26L251.14 149.38L249.72 150.48L248.26 151.56L246.75 152.61L245.19 153.64L243.59 154.65L242.15 155.51L279.31 206.96L241.59 206.96L208.48 158.46L182.85 158.46L182.85 206.96L148.85 206.96L147.9 50.27L236.74 50.27L238.52 51.16L240.25 52.08ZM183.26 128.61L223.47 128.61L224.22 128.06L224.96 127.5L225.67 126.94L226.36 126.37L227.02 125.81L227.67 125.24L228.3 124.66L228.91 124.09L229.5 123.51L230.06 122.93L230.61 122.35L231.13 121.76L231.64 121.17L232.12 120.58L232.58 119.99L233.03 119.39L233.45 118.79L233.85 118.19L234.23 117.58L234.59 116.97L234.93 116.36L235.25 115.75L235.55 115.13L235.83 114.52L236.09 113.89L236.32 113.27L236.54 112.64L236.73 112.01L236.91 111.38L237.06 110.75L237.2 110.11L237.31 109.47L237.4 108.82L237.47 108.18L237.53 107.53L237.56 106.88L237.57 106.22L237.56 105.57L237.53 104.91L237.47 104.25L237.4 103.58L237.31 102.91L237.2 102.24L237.06 101.57L236.91 100.89L236.73 100.21L236.54 99.53L236.32 98.85L236.09 98.16L235.83 97.47L235.55 96.78L235.25 96.09L234.93 95.39L234.59 94.69L234.23 93.98L233.85 93.28L233.45 92.57L233.03 91.86L232.58 91.14L232.12 90.43L231.64 89.71L231.13 88.99L230.61 88.26L230.06 87.53L229.5 86.8L228.91 86.07L228.3 85.33L227.67 84.6L227.02 83.85L226.36 83.11L225.67 82.36L224.96 81.61L224.22 80.86L223.47 80.11L183.26 80.11L183.26 128.61Z" id="b3agYlOnD6" fill="white" fill-opacity="1" filter="url(#shadow10375563)"></path></g><use xlink:href="#dEUA1A91Y" opacity="1" fill="#ffffff" fill-opacity="1"></use></g><g><g><filter id="shadow131839" x="281.63" y="44.82" width="184.31" height="171.14" filterUnits="userSpaceOnUse" primitiveUnits="userSpaceOnUse"><feFlood></feFlood><feComposite in2="SourceAlpha" operator="in"></feComposite><feGaussianBlur stdDeviation="1"></feGaussianBlur><feOffset dx="0" dy="1" result="afterOffset"></feOffset><feFlood flood-color="#000000" flood-opacity="0.5"></feFlood><feComposite in2="afterOffset" operator="in"></feComposite><feMorphology operator="dilate" radius="0"></feMorphology><feComposite in2="SourceAlpha" operator="out"></feComposite></filter><path d="M403.48 55.29L406.52 56.43L409.51 57.67L412.44 59.02L415.3 60.47L418.1 62.01L420.82 63.66L423.47 65.39L426.04 67.22L428.53 69.14L430.95 71.14L433.28 73.23L435.52 75.39L437.67 77.64L439.73 79.96L441.69 82.36L443.55 84.82L445.32 87.36L446.98 89.96L448.54 92.62L449.98 95.35L451.32 98.13L452.54 100.97L453.64 103.86L454.63 106.8L455.49 109.8L456.22 112.83L456.83 115.91L457.31 119.03L457.66 122.19L457.86 125.39L457.93 128.61L457.86 131.84L457.66 135.03L457.31 138.19L456.83 141.31L456.22 144.39L455.49 147.43L454.63 150.42L453.64 153.37L452.54 156.26L451.32 159.1L449.98 161.88L448.54 164.61L446.98 167.27L445.32 169.87L443.55 172.4L441.69 174.87L439.73 177.27L437.67 179.59L435.52 181.83L433.28 184L430.95 186.09L428.53 188.09L426.04 190.01L423.47 191.83L420.82 193.57L418.1 195.21L415.3 196.76L412.44 198.21L409.51 199.56L406.52 200.8L403.48 201.93L400.37 202.96L397.21 203.88L393.99 204.68L390.73 205.37L387.42 205.93L384.07 206.38L380.68 206.7L377.25 206.89L373.78 206.96L370.31 206.89L366.88 206.7L363.49 206.38L360.14 205.93L356.83 205.37L353.57 204.68L350.36 203.88L347.19 202.96L344.09 201.93L341.04 200.8L338.05 199.56L335.12 198.21L332.26 196.76L329.47 195.21L326.74 193.57L324.1 191.83L321.52 190.01L319.03 188.09L316.62 186.09L314.29 184L312.05 181.83L309.9 179.59L307.84 177.27L305.87 174.87L304.01 172.4L302.24 169.87L300.58 167.27L299.03 164.61L297.58 161.88L296.25 159.1L295.03 156.26L293.92 153.37L292.94 150.42L292.08 147.43L291.34 144.39L290.73 141.31L290.25 138.19L289.91 135.03L289.7 131.84L289.63 128.61L289.7 125.39L289.91 122.19L290.25 119.03L290.73 115.91L291.34 112.83L292.08 109.8L292.94 106.8L293.92 103.86L295.03 100.97L296.25 98.13L297.58 95.35L299.03 92.62L300.58 89.96L302.24 87.36L304.01 84.82L305.87 82.36L307.84 79.96L309.9 77.64L312.05 75.39L314.29 73.23L316.62 71.14L319.03 69.14L321.52 67.22L324.1 65.39L326.74 63.66L329.47 62.01L332.26 60.47L335.12 59.02L338.05 57.67L341.04 56.43L344.09 55.29L347.19 54.26L350.36 53.35L352.47 52.82L352.47 79.66L351.66 79.93L349.64 80.68L347.65 81.51L345.71 82.4L343.81 83.36L341.95 84.39L340.15 85.48L338.39 86.63L336.68 87.85L335.02 89.12L333.42 90.45L331.88 91.84L330.39 93.27L328.96 94.77L327.59 96.31L326.29 97.9L325.05 99.54L323.88 101.22L322.78 102.95L321.74 104.71L320.78 106.52L319.9 108.37L319.09 110.26L318.35 112.18L317.7 114.13L317.13 116.12L316.64 118.13L316.23 120.18L315.92 122.25L315.69 124.35L315.55 126.47L315.5 128.61L315.55 130.76L315.69 132.88L315.92 134.97L316.23 137.05L316.64 139.09L317.13 141.11L317.7 143.09L318.35 145.05L319.09 146.97L319.9 148.85L320.78 150.7L321.74 152.51L322.78 154.28L323.88 156.01L325.05 157.69L326.29 159.33L327.59 160.92L328.96 162.46L330.39 163.95L331.88 165.39L333.42 166.78L335.02 168.11L336.68 169.38L338.39 170.59L340.15 171.75L341.95 172.84L343.81 173.86L345.71 174.83L347.65 175.72L349.64 176.54L351.66 177.3L353.73 177.98L355.82 178.59L357.96 179.12L360.12 179.58L362.32 179.95L364.55 180.25L366.8 180.46L369.08 180.59L371.38 180.64L373.68 180.59L375.96 180.46L378.21 180.25L380.44 179.95L382.64 179.58L384.8 179.12L386.93 178.59L389.03 177.98L391.1 177.3L393.12 176.54L395.11 175.72L397.05 174.83L398.95 173.86L400.8 172.84L402.61 171.75L404.37 170.59L406.08 169.38L407.74 168.11L409.34 166.78L410.88 165.39L412.37 163.95L413.8 162.46L415.17 160.92L416.47 159.33L417.71 157.69L418.88 156.01L419.98 154.28L421.02 152.51L421.98 150.7L422.86 148.85L423.67 146.97L424.41 145.05L425.06 143.09L425.63 141.11L426.12 139.09L426.53 137.05L426.84 134.97L427.07 132.88L427.21 130.76L427.26 128.61L427.21 126.47L427.07 124.35L426.84 122.25L426.53 120.18L426.12 118.13L425.63 116.12L425.06 114.13L424.41 112.18L423.67 110.26L422.86 108.37L421.98 106.52L421.02 104.71L419.98 102.95L418.88 101.22L417.71 99.54L416.47 97.9L415.17 96.31L413.8 94.77L412.37 93.27L410.88 91.84L409.34 90.45L407.74 89.12L406.08 87.85L404.37 86.63L402.61 85.48L400.8 84.39L398.95 83.36L397.05 82.4L395.11 81.51L395.1 81.5L395.1 52.82L397.21 53.35L400.37 54.26L400.37 54.26L403.48 55.29Z" id="caHpeF7kp" fill="white" fill-opacity="1" filter="url(#shadow131839)"></path></g><use xlink:href="#b71JMIGyj" opacity="1" fill="#ffffff" fill-opacity="1"></use></g><g><g><filter id="shadow14716987" x="346.66" y="34.68" width="54.24" height="116.69" filterUnits="userSpaceOnUse" primitiveUnits="userSpaceOnUse"><feFlood></feFlood><feComposite in2="SourceAlpha" operator="in"></feComposite><feGaussianBlur stdDeviation="1.22"></feGaussianBlur><feOffset dx="0" dy="0" result="afterOffset"></feOffset><feFlood flood-color="#7bcb1d" flood-opacity="0.4"></feFlood><feComposite in2="afterOffset" operator="in"></feComposite><feMorphology operator="dilate" radius="1.5"></feMorphology><feComposite in2="SourceAlpha" operator="out"></feComposite></filter><path d="M356.16 44.18L391.4 44.18L391.4 141.88L356.16 141.88L356.16 44.18Z" id="d166Xcj4AB" fill="white" fill-opacity="1" filter="url(#shadow14716987)"></path></g><use xlink:href="#bdonZv48Y" opacity="1" fill="#7bcb1d" fill-opacity="1"></use></g><g><g><filter id="shadow10753282" x="465.23" y="42.27" width="156.98" height="173.69" filterUnits="userSpaceOnUse" primitiveUnits="userSpaceOnUse"><feFlood></feFlood><feComposite in2="SourceAlpha" operator="in"></feComposite><feGaussianBlur stdDeviation="1"></feGaussianBlur><feOffset dx="0" dy="1" result="afterOffset"></feOffset><feFlood flood-color="#000000" flood-opacity="0.5"></feFlood><feComposite in2="afterOffset" operator="in"></feComposite><feMorphology operator="dilate" radius="0"></feMorphology><feComposite in2="SourceAlpha" operator="out"></feComposite></filter><path d="M613.88 206.96L584.43 206.96L528.17 139.13L495.89 172.47L495.89 206.96L473.23 206.96L473.23 50.27L495.89 50.27L495.89 139.88L582.66 50.27L614.2 50.27L544.03 122.75L613.88 206.96Z" id="af9Z6KUDi" fill="white" fill-opacity="1" filter="url(#shadow10753282)"></path></g><use xlink:href="#e3Am3GRalP" opacity="1" fill="#ffffff" fill-opacity="1"></use></g><g><g><filter id="shadow7839088" x="621.42" y="42.27" width="133.2" height="173.69" filterUnits="userSpaceOnUse" primitiveUnits="userSpaceOnUse"><feFlood></feFlood><feComposite in2="SourceAlpha" operator="in"></feComposite><feGaussianBlur stdDeviation="1"></feGaussianBlur><feOffset dx="0" dy="1" result="afterOffset"></feOffset><feFlood flood-color="#000000" flood-opacity="0.5"></feFlood><feComposite in2="afterOffset" operator="in"></feComposite><feMorphology operator="dilate" radius="0"></feMorphology><feComposite in2="SourceAlpha" operator="out"></feComposite></filter><path d="M746.62 50.27L746.62 72.93L652.08 72.93L652.08 117.28L746.62 117.28L746.62 139.95L652.08 139.95L652.08 184.29L746.62 184.29L746.62 206.96L629.42 206.96L629.42 50.27L746.62 50.27Z" id="b1ZUdpmnTW" fill="white" fill-opacity="1" filter="url(#shadow7839088)"></path></g><use xlink:href="#b2uffLVROZ" opacity="1" fill="#ffffff" fill-opacity="1"></use></g><g><g><filter id="shadow15045417" x="753.83" y="42.27" width="131.9" height="173.69" filterUnits="userSpaceOnUse" primitiveUnits="userSpaceOnUse"><feFlood></feFlood><feComposite in2="SourceAlpha" operator="in"></feComposite><feGaussianBlur stdDeviation="1"></feGaussianBlur><feOffset dx="0" dy="1" result="afterOffset"></feOffset><feFlood flood-color="#000000" flood-opacity="0.5"></feFlood><feComposite in2="afterOffset" operator="in"></feComposite><feMorphology operator="dilate" radius="0"></feMorphology><feComposite in2="SourceAlpha" operator="out"></feComposite></filter><path d="M877.73 50.27L877.73 72.93L784.49 72.93L784.49 117.28L877.73 117.28L877.73 139.95L784.49 139.95L784.49 184.29L877.73 184.29L877.73 206.96L761.83 206.96L761.83 50.27L877.73 50.27Z" id="aDwdYfTJC" fill="white" fill-opacity="1" filter="url(#shadow15045417)"></path></g><use xlink:href="#c1r3oygl0a" opacity="1" fill="#ffffff" fill-opacity="1"></use></g><g><g><filter id="shadow9542872" x="885.31" y="42.27" width="138.37" height="173.69" filterUnits="userSpaceOnUse" primitiveUnits="userSpaceOnUse"><feFlood></feFlood><feComposite in2="SourceAlpha" operator="in"></feComposite><feGaussianBlur stdDeviation="1"></feGaussianBlur><feOffset dx="0" dy="1" result="afterOffset"></feOffset><feFlood flood-color="#000000" flood-opacity="0.5"></feFlood><feComposite in2="afterOffset" operator="in"></feComposite><feMorphology operator="dilate" radius="0"></feMorphology><feComposite in2="SourceAlpha" operator="out"></feComposite></filter><path d="M976.04 51.8L978.12 52.61L980.15 53.45L982.12 54.32L984.03 55.21L985.89 56.13L987.69 57.08L989.44 58.06L991.12 59.06L992.76 60.09L994.33 61.15L995.85 62.24L997.32 63.36L998.73 64.5L1000.08 65.68L1001.37 66.88L1002.61 68.1L1003.8 69.36L1004.92 70.64L1005.99 71.96L1007.01 73.3L1007.97 74.66L1008.87 76.06L1009.72 77.48L1010.51 78.93L1011.24 80.41L1011.92 81.92L1012.54 83.45L1013.11 85.02L1013.62 86.61L1014.07 88.23L1014.47 89.87L1014.81 91.55L1015.09 93.25L1015.32 94.98L1015.49 96.74L1015.61 98.52L1015.67 100.34L1015.67 102.18L1015.62 104.02L1015.52 105.84L1015.36 107.63L1015.15 109.39L1014.88 111.13L1014.56 112.84L1014.19 114.53L1013.77 116.2L1013.29 117.84L1012.75 119.45L1012.17 121.04L1011.52 122.61L1010.83 124.15L1010.08 125.66L1009.28 127.15L1008.43 128.61L1007.52 130.05L1006.56 131.47L1005.54 132.85L1004.47 134.22L1003.35 135.56L1002.17 136.87L1000.94 138.16L999.66 139.42L998.32 140.66L996.93 141.87L995.48 143.06L993.99 144.23L992.43 145.36L990.83 146.48L989.17 147.57L987.46 148.63L985.69 149.67L983.87 150.68L982 151.67L980.07 152.63L978.09 153.57L976.05 154.48L973.97 155.37L971.83 156.23L971.81 156.23L971.81 156.24L971.8 156.24L971.78 156.24L971.77 156.25L971.77 156.25L971.75 156.25L971.75 156.25L971.74 156.26L971.73 156.26L971.73 156.26L971.71 156.26L971.71 156.26L971.69 156.27L971.69 156.27L971.68 156.27L971.67 156.27L971.66 156.27L971.65 156.27L971.64 156.27L971.63 156.27L971.62 156.27L971.61 156.28L971.6 156.28L971.59 156.28L971.58 156.28L915.97 156.28L915.97 206.96L893.31 206.96L893.31 50.27L971.71 50.27L973.9 51.02L976.04 51.8ZM915.97 133.61L954.81 133.61L955.56 133.6L956.31 133.59L957.05 133.58L957.78 133.55L958.51 133.52L959.23 133.49L959.94 133.44L960.65 133.39L961.34 133.33L962.04 133.26L962.72 133.19L963.4 133.11L964.07 133.02L964.74 132.92L965.4 132.82L966.05 132.71L966.7 132.6L967.34 132.47L967.97 132.34L968.59 132.2L969.21 132.06L969.82 131.91L970.43 131.75L971.03 131.58L971.62 131.41L972.21 131.23L972.78 131.04L973.36 130.84L973.92 130.64L974.48 130.43L975.03 130.21L975.58 129.99L976.12 129.76L976.65 129.52L977.17 129.27L977.69 129.02L978.2 128.76L978.71 128.5L979.21 128.22L979.7 127.94L980.42 127.51L981.11 127.07L981.78 126.62L982.42 126.17L983.03 125.7L983.62 125.23L984.19 124.74L984.73 124.25L985.25 123.75L985.75 123.23L986.22 122.71L986.67 122.17L987.1 121.63L987.51 121.07L987.9 120.51L988.26 119.93L988.61 119.34L988.93 118.74L989.24 118.12L989.53 117.5L989.8 116.86L990.05 116.21L990.29 115.54L990.51 114.86L990.71 114.17L990.89 113.47L991.06 112.75L991.22 112.01L991.36 111.27L991.48 110.5L991.6 109.73L991.69 108.93L991.78 108.12L991.85 107.3L991.91 106.46L991.96 105.61L991.99 104.74L992.02 103.85L992.03 102.94L992.04 102.02L992.03 101.1L992.01 100.21L991.97 99.34L991.92 98.49L991.85 97.66L991.76 96.85L991.67 96.07L991.55 95.3L991.42 94.56L991.28 93.83L991.11 93.12L990.94 92.43L990.75 91.76L990.54 91.11L990.32 90.47L990.08 89.85L989.83 89.24L989.56 88.65L989.27 88.07L988.98 87.51L988.66 86.96L988.33 86.42L987.98 85.89L987.62 85.38L987.24 84.88L986.85 84.39L986.44 83.9L986.02 83.43L985.58 82.97L985.12 82.52L984.65 82.07L984.16 81.63L983.66 81.2L983.14 80.77L982.61 80.35L982.06 79.94L981.49 79.53L980.91 79.12L980.31 78.72L979.7 78.32L979.28 78.06L978.85 77.8L978.41 77.55L977.96 77.31L977.5 77.08L977.03 76.85L976.54 76.63L976.05 76.41L975.55 76.2L975.04 76L974.51 75.8L973.98 75.61L973.43 75.43L972.88 75.25L972.32 75.08L971.74 74.91L971.15 74.76L970.56 74.61L969.95 74.46L969.33 74.32L968.71 74.19L968.07 74.07L967.42 73.95L966.76 73.84L966.09 73.73L965.41 73.63L964.72 73.54L964.02 73.46L963.31 73.38L962.59 73.3L961.86 73.24L961.12 73.18L960.37 73.13L959.6 73.08L958.83 73.04L958.05 73.01L957.25 72.98L956.45 72.96L955.64 72.94L954.81 72.94L915.97 72.94L915.97 133.61Z" id="c8jNLucTs" fill="white" fill-opacity="1" filter="url(#shadow9542872)"></path></g><use xlink:href="#b2S05bF3F" opacity="1" fill="#ffffff" fill-opacity="1"></use></g></g></svg>